<svg id="Layer_1" data-name="Layer 1" xmlns="http://www.w3.org/2000/svg" xmlns:xlink="http://www.w3.org/1999/xlink" viewBox="0 0 600 450"><defs><style>.cls-1,.cls-42{opacity:0.15;}.cls-1{fill:url(#linear-gradient);}.cls-2,.cls-41,.cls-49{fill:#f1f2f2;}.cls-3,.cls-35{fill:#fff;}.cls-4{fill:#0562e8;}.cls-5{fill:#f99316;}.cls-6{fill:#3dba85;}.cls-7{fill:url(#linear-gradient-2);}.cls-8{fill:url(#linear-gradient-3);}.cls-9{fill:url(#linear-gradient-4);}.cls-10{fill:url(#linear-gradient-5);}.cls-11{fill:url(#linear-gradient-6);}.cls-12{fill:url(#linear-gradient-7);}.cls-13,.cls-35,.cls-40,.cls-43,.cls-49,.cls-52{opacity:0.5;}.cls-14{fill:#bcbec0;}.cls-15{fill:url(#linear-gradient-8);}.cls-16{fill:url(#linear-gradient-9);}.cls-17{fill:url(#linear-gradient-10);}.cls-18{fill:url(#linear-gradient-11);}.cls-19{fill:url(#linear-gradient-12);}.cls-20{fill:url(#linear-gradient-13);}.cls-21{fill:url(#linear-gradient-14);}.cls-22{fill:url(#linear-gradient-15);}.cls-23{fill:url(#linear-gradient-16);}.cls-24{fill:url(#linear-gradient-17);}.cls-25{fill:url(#linear-gradient-18);}.cls-26{fill:url(#linear-gradient-19);}.cls-27,.cls-28,.cls-29,.cls-30,.cls-31,.cls-44{fill:none;stroke-miterlimit:10;}.cls-27,.cls-28,.cls-29,.cls-30,.cls-31{stroke:#0562e8;stroke-width:2px;}.cls-28{stroke-dasharray:4.69 4.69;}.cls-29{stroke-dasharray:2.81 2.81;}.cls-30{stroke-dasharray:3.72 3.72;}.cls-31{stroke-dasharray:4.86 4.86;}.cls-32{fill:#0b4dad;}.cls-33{fill:#e6e7e8;}.cls-34{fill:#d1d3d4;}.cls-36{fill:url(#linear-gradient-20);}.cls-37{fill:url(#linear-gradient-21);}.cls-38{fill:url(#linear-gradient-22);}.cls-39{fill:url(#linear-gradient-23);}.cls-40{fill:url(#linear-gradient-24);}.cls-41{opacity:0.25;}.cls-42{fill:#231f20;}.cls-43{fill:url(#linear-gradient-25);}.cls-44{stroke:#bcbec0;stroke-width:3px;}.cls-45{fill:url(#linear-gradient-26);}.cls-46{fill:url(#linear-gradient-27);}.cls-47{fill:url(#linear-gradient-28);}.cls-48{fill:url(#linear-gradient-29);}.cls-50{fill:#359366;}.cls-51{fill:#e6e6e6;}.cls-52{fill:#333;}.cls-53{fill:#ccc;}.cls-54{fill:#298def;}.cls-55{fill:#d67d1d;}</style><linearGradient id="linear-gradient" x1="302.55" y1="619.97" x2="302.55" y2="72.64" gradientUnits="userSpaceOnUse"><stop offset="0" stop-color="#d1d3d4" stop-opacity="0"/><stop offset="1" stop-color="#bcbec0"/></linearGradient><linearGradient id="linear-gradient-2" x1="163.2" y1="415.98" x2="163.2" y2="273.12" xlink:href="#linear-gradient"/><linearGradient id="linear-gradient-3" x1="217.86" y1="299.57" x2="217.86" y2="254.3" xlink:href="#linear-gradient"/><linearGradient id="linear-gradient-4" x1="283.44" y1="306.85" x2="283.44" y2="201.83" xlink:href="#linear-gradient"/><linearGradient id="linear-gradient-5" x1="362.81" y1="289.61" x2="362.81" y2="223.27" xlink:href="#linear-gradient"/><linearGradient id="linear-gradient-6" x1="408.41" y1="320.24" x2="408.41" y2="256.13" xlink:href="#linear-gradient"/><linearGradient id="linear-gradient-7" x1="454.1" y1="411.17" x2="454.1" y2="280.7" xlink:href="#linear-gradient"/><linearGradient id="linear-gradient-8" x1="391.32" y1="392.23" x2="391.32" y2="357.02" gradientTransform="matrix(-1, 0, 0, 1, 848.32, 0)" xlink:href="#linear-gradient"/><linearGradient id="linear-gradient-9" x1="404.79" y1="363.54" x2="404.79" y2="352.38" gradientTransform="matrix(-1, 0, 0, 1, 848.32, 0)" xlink:href="#linear-gradient"/><linearGradient id="linear-gradient-10" x1="420.95" y1="365.34" x2="420.95" y2="339.45" gradientTransform="matrix(-1, 0, 0, 1, 848.32, 0)" xlink:href="#linear-gradient"/><linearGradient id="linear-gradient-11" x1="440.51" y1="361.09" x2="440.51" y2="344.74" gradientTransform="matrix(-1, 0, 0, 1, 848.32, 0)" xlink:href="#linear-gradient"/><linearGradient id="linear-gradient-12" x1="451.75" y1="368.63" x2="451.75" y2="352.83" gradientTransform="matrix(-1, 0, 0, 1, 848.32, 0)" xlink:href="#linear-gradient"/><linearGradient id="linear-gradient-13" x1="463.01" y1="391.05" x2="463.01" y2="358.89" gradientTransform="matrix(-1, 0, 0, 1, 848.32, 0)" xlink:href="#linear-gradient"/><linearGradient id="linear-gradient-14" x1="652.84" y1="414.23" x2="652.84" y2="360.58" gradientTransform="translate(-505.94)" xlink:href="#linear-gradient"/><linearGradient id="linear-gradient-15" x1="673.38" y1="370.51" x2="673.38" y2="353.51" gradientTransform="translate(-505.94)" xlink:href="#linear-gradient"/><linearGradient id="linear-gradient-16" x1="698" y1="373.24" x2="698" y2="333.8" gradientTransform="translate(-505.94)" xlink:href="#linear-gradient"/><linearGradient id="linear-gradient-17" x1="727.81" y1="366.77" x2="727.81" y2="341.86" gradientTransform="translate(-505.94)" xlink:href="#linear-gradient"/><linearGradient id="linear-gradient-18" x1="744.93" y1="378.27" x2="744.93" y2="354.2" gradientTransform="translate(-505.94)" xlink:href="#linear-gradient"/><linearGradient id="linear-gradient-19" x1="762.09" y1="412.42" x2="762.09" y2="363.42" gradientTransform="translate(-505.94)" xlink:href="#linear-gradient"/><linearGradient id="linear-gradient-20" x1="187.82" y1="161.33" x2="-114.91" y2="152.53" xlink:href="#linear-gradient"/><linearGradient id="linear-gradient-21" x1="187.59" y1="169.27" x2="-115.14" y2="160.48" xlink:href="#linear-gradient"/><linearGradient id="linear-gradient-22" x1="470.69" y1="92.29" x2="581.35" y2="92.29" xlink:href="#linear-gradient"/><linearGradient id="linear-gradient-23" x1="441.49" y1="97.78" x2="454.93" y2="97.78" xlink:href="#linear-gradient"/><linearGradient id="linear-gradient-24" x1="429.91" y1="313.56" x2="449.14" y2="313.56" xlink:href="#linear-gradient"/><linearGradient id="linear-gradient-25" x1="199.57" y1="298.06" x2="218.79" y2="298.06" gradientTransform="translate(-57.46 37.62)" xlink:href="#linear-gradient"/><linearGradient id="linear-gradient-26" x1="339.14" y1="130.34" x2="384.66" y2="130.34" xlink:href="#linear-gradient"/><linearGradient id="linear-gradient-27" x1="349.48" y1="138.24" x2="398.55" y2="138.24" xlink:href="#linear-gradient"/><linearGradient id="linear-gradient-28" x1="349.48" y1="146.14" x2="406.27" y2="146.14" xlink:href="#linear-gradient"/><linearGradient id="linear-gradient-29" x1="339.14" y1="154.04" x2="394.45" y2="154.04" xlink:href="#linear-gradient"/></defs><title>solutions-cloud-infrastructure-illustration</title><path class="cls-1" d="M246.33,71.34c-21.87-24-71.29-38.68-145.24-29.8-58.65,7-30.94,57-11.38,106.32s26.61,97-14.86,130.69-65.74,101-25,86.09S151.54,284,215.71,333.34,347.19,427.25,394.93,403s82.39-44.35,111.13-48.52c42.29-6.15,64.95-84.59,15.65-115.05-34-21-10-49.53,14.9-68.36,41.85-31.69,55.54-108.51,16.41-99.9s-95.48,97-142.44,65S394.15,71.94,351.89,79,262.76,89.34,246.33,71.34Z"/><rect class="cls-2" x="176.1" y="83.29" width="255.79" height="147.65"/><rect class="cls-3" x="188.67" y="107" width="232.96" height="123.94"/><rect class="cls-4" x="176.1" y="83.29" width="255.79" height="12.76"/><circle class="cls-3" cx="425.15" cy="96.04" r="5.51"/><circle class="cls-5" cx="425.15" cy="96.04" r="3.52"/><circle class="cls-3" cx="410.97" cy="96.04" r="5.51"/><circle class="cls-6" cx="410.97" cy="96.04" r="3.52"/><circle class="cls-3" cx="396.78" cy="96.04" r="5.51"/><circle class="cls-5" cx="396.78" cy="96.04" r="3.52"/><rect class="cls-2" x="200.8" y="117.63" width="31.55" height="2.87"/><rect class="cls-2" x="200.8" y="129.57" width="31.55" height="2.87"/><rect class="cls-2" x="200.8" y="141.5" width="31.55" height="2.87"/><rect class="cls-2" x="200.8" y="153.43" width="31.55" height="2.87"/><rect class="cls-2" x="200.8" y="165.37" width="31.55" height="2.87"/><rect class="cls-2" x="200.8" y="177.3" width="31.55" height="2.87"/><rect class="cls-2" x="200.8" y="189.24" width="31.55" height="2.87"/><rect class="cls-2" x="200.8" y="201.17" width="31.55" height="2.87"/><rect class="cls-2" x="200.8" y="213.11" width="31.55" height="2.87"/><rect class="cls-2" x="200.8" y="225.04" width="31.55" height="2.87"/><rect class="cls-5" x="252.46" y="119.07" width="20.91" height="20.91"/><rect class="cls-4" x="278.67" y="119.07" width="20.91" height="20.91"/><rect class="cls-4" x="252.46" y="144.42" width="20.91" height="20.91"/><rect class="cls-6" x="278.67" y="144.42" width="20.91" height="20.91"/><rect class="cls-5" x="252.46" y="178.74" width="43.37" height="6.91"/><rect class="cls-6" x="267.44" y="191.39" width="43.37" height="6.91"/><rect class="cls-5" x="290.53" y="199.87" width="43.37" height="6.91"/><rect class="cls-5" x="242.04" y="203.33" width="43.37" height="6.91"/><rect class="cls-5" x="306.32" y="178.74" width="19.45" height="6.91"/><path class="cls-7" d="M203.84,268a24.57,24.57,0,0,0-5.44,14.16c-1.2-.36-2.4-.69-3.64-1A52,52,0,0,0,183,279.89a52.63,52.63,0,0,0-44.21,81.23h-4a60.76,60.76,0,0,1-4.41-6.72,60.45,60.45,0,0,1,67.88-88.13A56.74,56.74,0,0,1,203.84,268Z"/><path class="cls-8" d="M241,266.52a24.72,24.72,0,0,0-42.6,15.67c-1.2-.36-2.4-.69-3.64-1,0-.45,0-.9,0-1.34a28.39,28.39,0,0,1,38.07-26.68,28.08,28.08,0,0,1,6.28,3.24A42.53,42.53,0,0,0,241,266.52Z"/><path class="cls-9" d="M328.12,254.7c0-.53,0-1,0-1.58a44.61,44.61,0,0,0-89.21,0c0,1.12,0,2.23.14,3.33A42.53,42.53,0,0,0,241,266.52a24.57,24.57,0,0,0-6.37-4.84,49,49,0,0,1-1.83-8.47,50.6,50.6,0,0,1-.45-6.67,51.2,51.2,0,0,1,100.14-15,50,50,0,0,1,2,10.2A33.25,33.25,0,0,0,328.12,254.7Z"/><path class="cls-10" d="M399.32,257.76a37.37,37.37,0,0,1-.53,6.38,31.33,31.33,0,0,0-4.43-1.53,33.6,33.6,0,0,0-66.24-7.91c0-.53,0-1,0-1.58a44.63,44.63,0,0,0-1.85-12.73,37.62,37.62,0,0,1,6.19-8.88A38.57,38.57,0,0,1,399.13,254C399.25,255.22,399.32,256.47,399.32,257.76Z"/><path class="cls-11" d="M424.16,290.1c0,.41,0,.84,0,1.25a36.15,36.15,0,0,0-4.95,4.27,5.43,5.43,0,0,0,0-.57,33.53,33.53,0,0,0-20.41-30.91,31.33,31.33,0,0,0-4.43-1.53,33.33,33.33,0,0,0-1.7-10.43,35.36,35.36,0,0,1,6.47,1.78,38.6,38.6,0,0,1,25,36.14Z"/><path class="cls-12" d="M490.9,316.89a44.24,44.24,0,0,1-42.22,44.18,38.53,38.53,0,1,0-24.55-69.72,36.15,36.15,0,0,0-4.95,4.27,5.43,5.43,0,0,0,0-.57,33.6,33.6,0,0,0-1.9-11.18,39.69,39.69,0,0,1,5.44-4.15,44.22,44.22,0,0,1,68.16,37.17Z"/><path class="cls-2" d="M485.22,322.59a38.55,38.55,0,0,1-36.54,38.48c-.67,0-1.33.05-2,.05H138.77a52.63,52.63,0,0,1,56-79.89c1.24.27,2.44.6,3.64,1A24.7,24.7,0,0,1,241,266.52a42.53,42.53,0,0,1-1.92-10.07c-.1-1.1-.14-2.21-.14-3.33a44.61,44.61,0,1,1,89.21,0c0,.54,0,1,0,1.58a33.61,33.61,0,0,1,32.63-25.6,33.64,33.64,0,0,1,33.61,33.51,31.33,31.33,0,0,1,4.43,1.53,33.53,33.53,0,0,1,20.41,30.91,5.43,5.43,0,0,1,0,.57,36.15,36.15,0,0,1,4.95-4.27,38.54,38.54,0,0,1,61.09,31.24Z"/><g class="cls-13"><circle class="cls-3" cx="270.13" cy="272.73" r="14.72"/><circle class="cls-3" cx="304.3" cy="271.79" r="18.89"/><circle class="cls-3" cx="325.07" cy="295.62" r="11.82"/><circle class="cls-3" cx="333.17" cy="327.36" r="23.97"/><circle class="cls-3" cx="283.78" cy="312.79" r="42.65"/></g><path class="cls-4" d="M249.56,308.66c2.34-.83,4.65-1.68,7-2.47a1.4,1.4,0,0,0,.94-1c.73-1.91,1.52-3.8,2.36-5.65a1.42,1.42,0,0,0,0-1.37c-1-2-1.92-4-2.91-6.05a.84.84,0,0,1,.18-1.14q2.47-2.4,4.88-4.87a.81.81,0,0,1,1.13-.17c2.07,1,4.14,2,6.22,2.94a1.49,1.49,0,0,0,1,0c2-.79,3.91-1.65,5.89-2.42a1.28,1.28,0,0,0,.89-.84c.74-2.14,1.53-4.27,2.26-6.41a.75.75,0,0,1,.86-.64c2.32,0,4.65,0,7,0a.77.77,0,0,1,.89.61c.72,2.15,1.52,4.27,2.25,6.41a1.37,1.37,0,0,0,.95.89c1.9.73,3.79,1.51,5.65,2.35a1.5,1.5,0,0,0,1.45,0c2-1,4-1.9,6-2.88a.86.86,0,0,1,1.2.2c1.56,1.61,3.14,3.2,4.76,4.75a1,1,0,0,1,.2,1.35c-1,2-2,4.07-2.91,6.14a1.42,1.42,0,0,0,.06,1c.79,2,1.6,3.93,2.45,5.88a1.56,1.56,0,0,0,.77.81c2.14.81,4.32,1.55,6.47,2.35.24.09.56.4.57.61,0,2.6,0,5.2,0,7.84-2.29.82-4.55,1.64-6.82,2.41a1.64,1.64,0,0,0-1.13,1.14c-.68,1.86-1.44,3.7-2.28,5.5a1.53,1.53,0,0,0,0,1.51c1,2,1.91,4,2.88,6a.83.83,0,0,1-.19,1.14c-1.65,1.6-3.27,3.22-4.87,4.88a.84.84,0,0,1-1.14.16c-2.06-1-4.13-2-6.22-2.94a1.46,1.46,0,0,0-1,0c-2,.79-3.91,1.65-5.89,2.42a1.28,1.28,0,0,0-.89.84c-.74,2.14-1.53,4.27-2.26,6.41a.75.75,0,0,1-.86.64c-2.32,0-4.65,0-7,0a.77.77,0,0,1-.89-.61c-.72-2.15-1.52-4.27-2.25-6.41a1.37,1.37,0,0,0-.95-.89q-2.89-1.11-5.72-2.39a1.34,1.34,0,0,0-1.29,0c-2,1-4,1.92-6,2.91a.88.88,0,0,1-1.21-.19c-1.57-1.64-3.18-3.24-4.81-4.82a.86.86,0,0,1-.18-1.21c1-2,1.94-4.09,2.93-6.12a1.16,1.16,0,0,0,0-1.14c-.86-1.94-1.64-3.92-2.49-5.86a1.61,1.61,0,0,0-.76-.82c-2.12-.8-4.25-1.57-6.4-2.29-.5-.17-.69-.37-.68-.92C249.57,313.74,249.56,311.22,249.56,308.66Zm34.23,17.78a13.65,13.65,0,1,0-13.66-13.58A13.62,13.62,0,0,0,283.79,326.44Z"/><path class="cls-14" d="M316.05,325.3c1.17-.42,2.33-.84,3.49-1.24a.72.72,0,0,0,.47-.49c.36-1,.76-1.9,1.18-2.83a.71.71,0,0,0,0-.68c-.5-1-1-2-1.46-3a.4.4,0,0,1,.09-.56c.82-.8,1.64-1.62,2.44-2.44a.41.41,0,0,1,.57-.09c1,.5,2.06,1,3.11,1.47a.67.67,0,0,0,.52,0c1-.39,1.95-.82,2.94-1.21a.64.64,0,0,0,.44-.42c.37-1.07.77-2.13,1.13-3.2.08-.24.18-.33.43-.32h3.49a.38.38,0,0,1,.44.3c.37,1.08.77,2.14,1.13,3.21a.67.67,0,0,0,.47.44c1,.37,1.9.76,2.83,1.18a.74.74,0,0,0,.72,0c1-.5,2-.95,3-1.44a.42.42,0,0,1,.6.1c.78.8,1.57,1.6,2.38,2.38a.49.49,0,0,1,.1.67c-.51,1-1,2-1.46,3.07a.75.75,0,0,0,0,.51q.6,1.49,1.23,2.94a.77.77,0,0,0,.38.41c1.08.41,2.16.77,3.24,1.17.12.05.28.2.28.31,0,1.3,0,2.6,0,3.92-1.14.41-2.27.82-3.41,1.2a.82.82,0,0,0-.56.57c-.34.93-.72,1.85-1.14,2.75a.76.76,0,0,0,0,.76c.49,1,1,2,1.44,3a.41.41,0,0,1-.09.56c-.83.8-1.64,1.62-2.44,2.44a.41.41,0,0,1-.57.08c-1-.5-2.07-1-3.11-1.47a.78.78,0,0,0-.52,0c-1,.4-1.95.83-2.94,1.21a.62.62,0,0,0-.44.42c-.37,1.08-.77,2.14-1.13,3.21a.39.39,0,0,1-.43.32h-3.49a.38.38,0,0,1-.44-.31c-.37-1.07-.77-2.13-1.13-3.2a.71.71,0,0,0-.47-.45c-1-.37-1.93-.76-2.87-1.19a.66.66,0,0,0-.64,0c-1,.5-2,1-3,1.46a.43.43,0,0,1-.6-.1c-.79-.81-1.59-1.62-2.41-2.41a.43.43,0,0,1-.09-.6c.5-1,1-2.05,1.47-3.06a.58.58,0,0,0,0-.57c-.43-1-.82-2-1.24-2.93a.77.77,0,0,0-.38-.41c-1.06-.4-2.13-.78-3.2-1.15-.25-.08-.35-.18-.34-.45C316.06,327.84,316.05,326.58,316.05,325.3Zm17.12,8.89a6.83,6.83,0,1,0-6.83-6.79A6.81,6.81,0,0,0,333.17,334.19Z"/><path class="cls-6" d="M317,294.94l1.65-.59a.32.32,0,0,0,.22-.23c.17-.45.36-.9.56-1.34a.33.33,0,0,0,0-.32c-.23-.48-.45-1-.68-1.43a.18.18,0,0,1,0-.27c.39-.38.77-.77,1.15-1.16a.2.2,0,0,1,.27,0l1.47.7a.36.36,0,0,0,.25,0c.46-.18.92-.39,1.39-.57a.3.3,0,0,0,.21-.2L324,288a.17.17,0,0,1,.2-.15h1.65a.19.19,0,0,1,.21.15c.17.51.36,1,.53,1.51a.31.31,0,0,0,.23.21c.45.18.89.36,1.33.56a.36.36,0,0,0,.35,0l1.41-.69a.21.21,0,0,1,.29.05c.36.38.74.76,1.12,1.13a.22.22,0,0,1,.05.31c-.24.48-.47,1-.69,1.46a.33.33,0,0,0,0,.24c.19.47.38.93.58,1.39a.41.41,0,0,0,.19.2c.5.19,1,.36,1.53.55.05,0,.13.1.13.15,0,.61,0,1.23,0,1.85l-1.62.57a.37.37,0,0,0-.26.27c-.17.44-.35.88-.55,1.3a.38.38,0,0,0,0,.36l.68,1.41a.19.19,0,0,1,0,.27c-.39.38-.78.77-1.16,1.16a.19.19,0,0,1-.26,0c-.49-.24-1-.48-1.48-.7a.39.39,0,0,0-.24,0c-.47.19-.93.4-1.4.58a.27.27,0,0,0-.2.2c-.18.5-.37,1-.54,1.51,0,.11-.08.16-.2.16h-1.65a.17.17,0,0,1-.21-.14c-.17-.51-.36-1-.54-1.52a.33.33,0,0,0-.22-.21c-.46-.17-.91-.36-1.36-.56a.27.27,0,0,0-.3,0l-1.43.68a.21.21,0,0,1-.29,0q-.56-.59-1.14-1.14a.21.21,0,0,1,0-.29c.24-.48.46-1,.7-1.45a.29.29,0,0,0,0-.27l-.59-1.38a.35.35,0,0,0-.18-.2c-.5-.19-1-.37-1.51-.54a.19.19,0,0,1-.16-.22Zm8.1,4.2a3.23,3.23,0,1,0-3.23-3.21A3.22,3.22,0,0,0,325.07,299.14Z"/><path class="cls-14" d="M291,270.35c.89-.32,1.76-.64,2.64-.94A.54.54,0,0,0,294,269c.28-.73.57-1.44.89-2.15a.52.52,0,0,0,0-.51c-.38-.76-.73-1.53-1.1-2.3a.31.31,0,0,1,.06-.43c.63-.6,1.24-1.22,1.85-1.85a.32.32,0,0,1,.43-.06c.78.38,1.57.76,2.36,1.11a.58.58,0,0,0,.39,0c.75-.3,1.49-.63,2.24-.92a.48.48,0,0,0,.33-.32c.28-.81.58-1.62.86-2.43a.29.29,0,0,1,.33-.24h2.64a.3.3,0,0,1,.34.23c.27.81.57,1.62.85,2.43a.51.51,0,0,0,.36.34c.72.27,1.44.57,2.14.89a.57.57,0,0,0,.55,0c.75-.37,1.51-.71,2.26-1.09a.33.33,0,0,1,.46.08q.89.92,1.8,1.8a.37.37,0,0,1,.08.51c-.38.77-.75,1.55-1.11,2.33a.59.59,0,0,0,0,.39c.3.75.61,1.49.93,2.23a.63.63,0,0,0,.29.31c.81.31,1.63.58,2.45.89a.38.38,0,0,1,.22.23c0,1,0,2,0,3l-2.59.92a.6.6,0,0,0-.43.43c-.26.7-.55,1.4-.86,2.08a.56.56,0,0,0,0,.57c.37.76.72,1.52,1.09,2.27a.31.31,0,0,1-.07.43c-.62.61-1.24,1.22-1.85,1.85a.31.31,0,0,1-.43.06c-.78-.38-1.57-.76-2.36-1.12a.65.65,0,0,0-.39,0c-.75.3-1.48.63-2.23.92a.48.48,0,0,0-.34.32c-.28.81-.58,1.62-.85,2.43-.06.18-.14.25-.33.24h-2.64c-.19,0-.28,0-.34-.23-.27-.81-.58-1.62-.85-2.43a.55.55,0,0,0-.36-.34c-.73-.28-1.46-.58-2.17-.9a.5.5,0,0,0-.49,0c-.76.38-1.53.73-2.3,1.11a.32.32,0,0,1-.45-.08c-.6-.62-1.21-1.23-1.83-1.82a.33.33,0,0,1-.07-.46c.38-.77.74-1.55,1.12-2.32a.47.47,0,0,0,0-.43c-.32-.74-.62-1.49-.94-2.23a.67.67,0,0,0-.29-.31c-.8-.3-1.61-.59-2.43-.86a.32.32,0,0,1-.26-.35C291,272.27,291,271.32,291,270.35Zm13,6.74a5.18,5.18,0,1,0-5.18-5.15A5.17,5.17,0,0,0,304,277.09Z"/><path class="cls-5" d="M262,271.75l1.65-.58a.35.35,0,0,0,.23-.24c.17-.45.35-.89.55-1.33a.35.35,0,0,0,0-.33c-.24-.47-.46-.95-.69-1.43a.2.2,0,0,1,0-.27c.39-.38.78-.76,1.15-1.15a.18.18,0,0,1,.27,0l1.47.69a.36.36,0,0,0,.25,0l1.39-.57c.12-.05.18-.09.21-.2.18-.51.37-1,.54-1.52,0-.11.08-.15.2-.15H271a.18.18,0,0,1,.21.14c.17.51.36,1,.54,1.52a.31.31,0,0,0,.22.21c.45.17.9.36,1.34.56a.37.37,0,0,0,.34,0l1.41-.68a.21.21,0,0,1,.29.05c.37.38.74.76,1.12,1.12a.22.22,0,0,1,.05.32c-.24.48-.47,1-.69,1.45a.36.36,0,0,0,0,.25c.18.46.38.93.58,1.39a.34.34,0,0,0,.18.19l1.53.56c.06,0,.13.09.13.14,0,.62,0,1.23,0,1.86l-1.61.57a.37.37,0,0,0-.27.27c-.16.44-.34.87-.54,1.3a.36.36,0,0,0,0,.36c.24.46.45.94.69,1.41a.2.2,0,0,1-.05.27c-.39.38-.77.76-1.15,1.15-.09.1-.16.09-.27,0l-1.47-.69a.31.31,0,0,0-.25,0c-.46.19-.92.39-1.39.57a.32.32,0,0,0-.21.2l-.54,1.52a.17.17,0,0,1-.2.15h-1.65a.18.18,0,0,1-.21-.14c-.17-.51-.36-1-.53-1.52a.31.31,0,0,0-.23-.21c-.45-.18-.91-.36-1.35-.57a.34.34,0,0,0-.31,0l-1.43.69A.2.2,0,0,1,265,279l-1.14-1.14a.2.2,0,0,1-.05-.28c.24-.48.46-1,.7-1.45a.26.26,0,0,0,0-.27c-.2-.46-.38-.93-.58-1.39a.42.42,0,0,0-.18-.19c-.51-.19-1-.37-1.52-.54a.19.19,0,0,1-.16-.22C262,273,262,272.36,262,271.75Zm8.1,4.21a3.23,3.23,0,1,0-3.23-3.21A3.22,3.22,0,0,0,270.13,276Z"/><path class="cls-15" d="M447,355.77a6,6,0,0,1,1.34,3.49c.29-.09.59-.17.89-.24a12.73,12.73,0,0,1,2.91-.33,13,13,0,0,1,10.89,20h1a14.39,14.39,0,0,0,1.09-1.66,14.89,14.89,0,0,0-16.73-21.72C447.9,355.46,447.44,355.6,447,355.77Z"/><path class="cls-16" d="M437.83,355.4a6,6,0,0,1,1.57-1.2,6.1,6.1,0,0,1,8.93,5.06c.29-.09.59-.17.89-.24,0-.11,0-.22,0-.33a7.07,7.07,0,0,0-.85-3.36,7,7,0,0,0-8.53-3.22,7.34,7.34,0,0,0-1.55.8A10.75,10.75,0,0,1,437.83,355.4Z"/><path class="cls-17" d="M416.36,352.48c0-.13,0-.26,0-.39a10.77,10.77,0,0,1,.46-3.13,11,11,0,0,1,21.53,3.13,7.38,7.38,0,0,1,0,.82,10.75,10.75,0,0,1-.47,2.49,6,6,0,0,1,1.57-1.2,12.93,12.93,0,0,0,.45-2.09,12.62,12.62,0,0,0-24.57-5.34,12.14,12.14,0,0,0-.5,2.51A8.28,8.28,0,0,1,416.36,352.48Z"/><path class="cls-18" d="M398.81,353.24a9.07,9.07,0,0,0,.13,1.57,8.27,8.27,0,0,1,1.09-.38,8.44,8.44,0,0,1,.42-2.57,8.28,8.28,0,0,1,15.91.62c0-.13,0-.26,0-.39a10.77,10.77,0,0,1,.46-3.13,9.36,9.36,0,0,0-1.53-2.19,9.5,9.5,0,0,0-16.42,5.53C398.83,352.61,398.81,352.92,398.81,353.24Z"/><path class="cls-19" d="M392.69,361.21c0,.1,0,.2,0,.3a8.75,8.75,0,0,1,1.21,1.06v-.14a8.12,8.12,0,0,1,.47-2.76,8.32,8.32,0,0,1,5.65-5.24,8.44,8.44,0,0,1,.42-2.57,9.33,9.33,0,0,0-1.59.44,9.52,9.52,0,0,0-5.82,6.35A9.37,9.37,0,0,0,392.69,361.21Z"/><path class="cls-20" d="M376.24,367.81a10.91,10.91,0,0,0,10.41,10.89,9.5,9.5,0,1,1,6.05-17.19,8.75,8.75,0,0,1,1.21,1.06v-.14a8.12,8.12,0,0,1,.47-2.76,10.08,10.08,0,0,0-1.34-1,10.9,10.9,0,0,0-16.8,9.16Z"/><path class="cls-2" d="M377.64,369.21a9.51,9.51,0,0,0,9,9.49H463a13,13,0,0,0-10.89-20,12.73,12.73,0,0,0-2.91.33c-.3.07-.6.15-.89.24a6.1,6.1,0,0,0-8.93-5.06,6,6,0,0,0-1.57,1.2,10.75,10.75,0,0,0,.47-2.49,7.38,7.38,0,0,0,0-.82A11,11,0,0,0,416.81,349a10.77,10.77,0,0,0-.46,3.13c0,.13,0,.26,0,.39a8.28,8.28,0,0,0-15.91-.62,8.44,8.44,0,0,0-.42,2.57,8.32,8.32,0,0,0-5.65,5.24,8.12,8.12,0,0,0-.47,2.76v.14a8.75,8.75,0,0,0-1.21-1.06,9.51,9.51,0,0,0-15.06,7.7Z"/><path class="cls-21" d="M162.17,358.67a9.18,9.18,0,0,0-2,5.31c-.45-.13-.9-.26-1.36-.36a19.77,19.77,0,0,0-21,30h-1.52a22.7,22.7,0,0,1-1.65-24.8,22.68,22.68,0,0,1,19.77-11.56,22.93,22.93,0,0,1,5.72.73A21.76,21.76,0,0,1,162.17,358.67Z"/><path class="cls-22" d="M176.12,358.1a9.07,9.07,0,0,0-2.39-1.82,9.3,9.3,0,0,0-13.61,7.7c-.45-.13-.9-.26-1.36-.36,0-.17,0-.33,0-.5a10.66,10.66,0,0,1,14.3-10,10.35,10.35,0,0,1,2.36,1.22A15.9,15.9,0,0,0,176.12,358.1Z"/><path class="cls-23" d="M208.84,353.66c0-.2,0-.39,0-.59a16.75,16.75,0,0,0-33.5,0c0,.42,0,.83.05,1.25a15.9,15.9,0,0,0,.72,3.78,9.07,9.07,0,0,0-2.39-1.82,19.54,19.54,0,0,1-.69-3.18,18.89,18.89,0,0,1-.17-2.51A19.23,19.23,0,0,1,210.48,345a18.7,18.7,0,0,1,.76,3.83A12.54,12.54,0,0,0,208.84,353.66Z"/><path class="cls-24" d="M235.58,354.81a14.54,14.54,0,0,1-.2,2.39,12.51,12.51,0,0,0-1.66-.57,12.63,12.63,0,0,0-22.48-7.85,12.54,12.54,0,0,0-2.4,4.88c0-.2,0-.39,0-.59a16.69,16.69,0,0,0-.69-4.78,13.87,13.87,0,0,1,2.32-3.34,14.48,14.48,0,0,1,25,8.43C235.55,353.85,235.58,354.32,235.58,354.81Z"/><path class="cls-25" d="M244.91,367a3.62,3.62,0,0,1,0,.47A13.52,13.52,0,0,0,243,369v-.22a12.58,12.58,0,0,0-7.66-11.61,12.51,12.51,0,0,0-1.66-.57,12.68,12.68,0,0,0-.64-3.92,14.31,14.31,0,0,1,2.43.67,14.52,14.52,0,0,1,8.86,9.67A14.35,14.35,0,0,1,244.91,367Z"/><path class="cls-26" d="M270,377a16.62,16.62,0,0,1-15.86,16.59,14.47,14.47,0,1,0-9.22-26.19A13.52,13.52,0,0,0,243,369v-.22a12.73,12.73,0,0,0-.71-4.2,16.19,16.19,0,0,1,2-1.56A16.6,16.6,0,0,1,270,377Z"/><path class="cls-2" d="M267.84,379.15a14.48,14.48,0,0,1-13.73,14.46l-.74,0H137.73a19.78,19.78,0,0,1,21-30c.46.1.91.23,1.36.36a9.3,9.3,0,0,1,13.61-7.7,9.07,9.07,0,0,1,2.39,1.82,15.9,15.9,0,0,1-.72-3.78c0-.42-.05-.83-.05-1.25a16.75,16.75,0,1,1,33.5,0c0,.2,0,.39,0,.59a12.62,12.62,0,0,1,24.24-1,12.68,12.68,0,0,1,.64,3.92,12.51,12.51,0,0,1,1.66.57A12.58,12.58,0,0,1,243,368.81V369a13.52,13.52,0,0,1,1.85-1.61,14.48,14.48,0,0,1,22.95,11.73Z"/><polygon class="cls-3" points="292.2 183.64 293.87 180.75 290.53 180.75 292.2 183.64"/><polygon class="cls-3" points="306.82 196.81 308.5 193.91 305.15 193.91 306.82 196.81"/><polygon class="cls-3" points="322.67 183.64 324.34 180.75 321 180.75 322.67 183.64"/><polygon class="cls-3" points="330.5 205.29 332.17 202.4 328.83 202.4 330.5 205.29"/><line class="cls-27" x1="194.73" y1="261.83" x2="194.73" y2="259.33"/><line class="cls-28" x1="194.73" y1="254.64" x2="194.73" y2="238.23"/><line class="cls-27" x1="194.73" y1="235.89" x2="194.73" y2="233.39"/><line class="cls-27" x1="219.2" y1="246.17" x2="219.2" y2="243.67"/><line class="cls-29" x1="219.2" y1="240.86" x2="219.2" y2="236.64"/><line class="cls-27" x1="219.2" y1="235.24" x2="219.2" y2="232.74"/><line class="cls-27" x1="413.54" y1="251.51" x2="413.54" y2="249.01"/><line class="cls-30" x1="413.54" y1="245.29" x2="413.54" y2="239.71"/><line class="cls-27" x1="413.54" y1="237.85" x2="413.54" y2="235.35"/><line class="cls-27" x1="433.11" y1="270.14" x2="433.11" y2="267.64"/><line class="cls-31" x1="433.11" y1="262.77" x2="433.11" y2="245.76"/><line class="cls-27" x1="433.11" y1="243.33" x2="433.11" y2="240.83"/><rect class="cls-32" x="480.2" y="132.43" width="110.35" height="91.93" rx="3.13"/><rect class="cls-3" x="489.39" y="145.92" width="91.96" height="69.26" rx="4.8"/><rect class="cls-33" x="489.39" y="151.02" width="91.96" height="69.26" rx="4.8"/><rect class="cls-34" x="489.39" y="154.87" width="91.96" height="69.26" rx="4.8"/><path class="cls-4" d="M587.41,224.37H483.33a3.13,3.13,0,0,1-3.13-3.13V162.17a3.13,3.13,0,0,1,3.13-3.13h52.05a5.55,5.55,0,0,0,4.27-2l9.83-11.67a5.58,5.58,0,0,1,4.27-2h33.66a3.13,3.13,0,0,1,3.13,3.13v74.72A3.13,3.13,0,0,1,587.41,224.37Z"/><path class="cls-35" d="M543.69,177.34H527.05a1.33,1.33,0,0,0-1.16.67l-8.32,14.41a1.34,1.34,0,0,0,0,1.34l8.32,14.41a1.35,1.35,0,0,0,1.16.67h16.64a1.35,1.35,0,0,0,1.16-.67l8.32-14.41a1.34,1.34,0,0,0,0-1.34L544.85,178A1.33,1.33,0,0,0,543.69,177.34Z"/><path class="cls-3" d="M539.53,184.54h-8.32a1.35,1.35,0,0,0-1.16.67l-4.16,7.21a1.34,1.34,0,0,0,0,1.34l4.16,7.2a1.33,1.33,0,0,0,1.16.67h8.32a1.33,1.33,0,0,0,1.16-.67l4.16-7.2a1.34,1.34,0,0,0,0-1.34l-4.16-7.21A1.35,1.35,0,0,0,539.53,184.54Z"/><path class="cls-36" d="M178.11,166.7s-13.4-2.3-20.2-8.38-12.15-2.72-16.33,0-14.76-4.92-16.65-6.38-6.8-4.4-14.76,2.83-14.55,7-17,3-8.79-4.08-12.66.21-8.27,5.13-11.93,3.35S56.79,162,54,166.7Z"/><path class="cls-37" d="M36.27,167.22s-1.47-.42-4.71-3.66-3.66-1.15-6.18,1a11.61,11.61,0,0,1-4.18,2.62Z"/><path class="cls-38" d="M581.35,99.69s-11.94-2-18-7.47-10.82-2.42-14.55,0S535.63,87.84,534,86.53s-6.06-3.92-13.15,2.52-13,6.25-15.12,2.71-7.84-3.64-11.29.18-7.37,4.58-10.63,3-10.55.56-13.07,4.76Z"/><path class="cls-39" d="M454.93,100.15s-1.31-.37-4.2-3.26-3.27-1-5.51.93a10.3,10.3,0,0,1-3.73,2.33Z"/><circle class="cls-3" cx="436.86" cy="313.56" r="8.8"/><path class="cls-4" d="M436.32,307.15h12.82a0,0,0,0,1,0,0V320a0,0,0,0,1,0,0H436.32a6.41,6.41,0,0,1-6.41-6.41v0A6.41,6.41,0,0,1,436.32,307.15Z"/><path class="cls-40" d="M436.32,307.15h12.82a0,0,0,0,1,0,0V320a0,0,0,0,1,0,0H436.32a6.41,6.41,0,0,1-6.41-6.41v0A6.41,6.41,0,0,1,436.32,307.15Z"/><path class="cls-41" d="M449.14,307.15v4.16H430.32a6.31,6.31,0,0,1,1.47-2.28,6.39,6.39,0,0,1,4.53-1.88Z"/><path class="cls-42" d="M430.31,315.76h18.83V320H436.32A6.38,6.38,0,0,1,430.31,315.76Z"/><circle class="cls-3" cx="154.39" cy="335.68" r="8.8"/><path class="cls-4" d="M148.52,329.27h12.82a0,0,0,0,1,0,0v12.82a0,0,0,0,1,0,0H148.52a6.41,6.41,0,0,1-6.41-6.41v0a6.41,6.41,0,0,1,6.41-6.41Z" transform="translate(303.45 671.35) rotate(-180)"/><path class="cls-43" d="M148.52,329.27h12.82a0,0,0,0,1,0,0v12.82a0,0,0,0,1,0,0H148.52a6.41,6.41,0,0,1-6.41-6.41v0a6.41,6.41,0,0,1,6.41-6.41Z" transform="translate(303.45 671.35) rotate(-180)"/><path class="cls-41" d="M142.11,342.09v-4.16h18.82a6.31,6.31,0,0,1-1.47,2.28,6.39,6.39,0,0,1-4.53,1.88Z"/><path class="cls-42" d="M160.94,333.48H142.11v-4.21h12.82A6.38,6.38,0,0,1,160.94,333.48Z"/><path class="cls-44" d="M449.14,313.56h52a34.22,34.22,0,0,0,34.22-34.21v-55"/><path class="cls-44" d="M142.11,335.68H101.52A26.7,26.7,0,0,1,74.82,309V266.07"/><rect class="cls-2" x="318" y="119.07" width="96.49" height="46.26"/><path class="cls-4" d="M348.3,142.19q0,.65-.06,1.29a12,12,0,0,1-1.13,3.9,12.08,12.08,0,0,1-1.69,2.56,11.76,11.76,0,0,1-6.77,3.9,11.29,11.29,0,0,1-2.19.2,11.85,11.85,0,1,1,0-23.7,11.29,11.29,0,0,1,2.19.21,11.76,11.76,0,0,1,6.77,3.9,12.08,12.08,0,0,1,1.69,2.56,12,12,0,0,1,1.13,3.9C348.28,141.33,348.3,141.76,348.3,142.19Z"/><path class="cls-45" d="M384.66,130.34h0a2.39,2.39,0,0,1-2.39,2.39H347.42a14.43,14.43,0,0,0-8.28-4.77h43.13A2.39,2.39,0,0,1,384.66,130.34Z"/><path class="cls-46" d="M398.55,138.24h0a2.39,2.39,0,0,1-2.39,2.39h-45.3a14.52,14.52,0,0,0-1.38-4.77h46.68A2.39,2.39,0,0,1,398.55,138.24Z"/><path class="cls-47" d="M406.27,146.14h0a2.39,2.39,0,0,1-2.39,2.39h-54.4a14.45,14.45,0,0,0,1.38-4.77h53A2.39,2.39,0,0,1,406.27,146.14Z"/><path class="cls-48" d="M394.45,154h0a2.38,2.38,0,0,1-2.38,2.39H339.14a14.43,14.43,0,0,0,8.28-4.77h44.65A2.38,2.38,0,0,1,394.45,154Z"/><circle class="cls-5" cx="382.21" cy="130.34" r="1.99"/><circle class="cls-6" cx="396" cy="138.24" r="1.99"/><circle class="cls-5" cx="403.73" cy="146.14" r="1.99"/><circle class="cls-6" cx="391.9" cy="154.04" r="1.99"/><circle class="cls-49" cx="262.91" cy="129.52" r="3.33"/><circle class="cls-49" cx="289.13" cy="129.52" r="3.33"/><circle class="cls-49" cx="262.91" cy="154.87" r="3.33"/><circle class="cls-49" cx="289.13" cy="154.87" r="3.33"/><rect class="cls-6" x="34.32" y="194.88" width="81" height="71.19"/><path class="cls-3" d="M61.82,225.58l-10.66,4L61.82,234v5.56L45.23,232V227.5L61.82,220Z"/><path class="cls-3" d="M70.12,241,65,239.18l17.61-28.52,5.15,1.8Z"/><path class="cls-3" d="M99.58,229.62l-10.67-4V220l16.6,7.48V232l-16.6,7.6V234Z"/><polygon class="cls-50" points="115.32 194.88 119.61 203.52 115.32 203.52 115.32 194.88"/><polygon class="cls-50" points="34.32 194.88 30.03 203.52 34.32 203.52 34.32 194.88"/><polygon class="cls-50" points="34.32 266.07 30.03 257.42 34.32 257.42 34.32 266.07"/><polygon class="cls-50" points="115.32 266.07 119.61 257.42 115.32 257.42 115.32 266.07"/><polygon class="cls-51" points="530.51 337.02 530.51 362.87 504.27 362.87 504.27 331.2 524.69 331.2 530.51 337.02"/><polygon class="cls-52" points="523.88 337.83 524.69 331.2 530.51 337.02 523.88 337.83"/><polygon class="cls-53" points="524.69 337.02 524.69 331.2 530.51 337.02 524.69 337.02"/><rect class="cls-5" x="505.85" y="335.45" width="16.97" height="2.61" rx="0.65"/><rect class="cls-5" x="505.85" y="339.17" width="20.87" height="2.61" rx="0.65"/><path class="cls-54" d="M506.5,343.2h14.62a.65.65,0,0,1,.65.65h0a.65.65,0,0,1-.65.65H506.5a.65.65,0,0,1-.65-.65h0A.65.65,0,0,1,506.5,343.2Z"/><path class="cls-54" d="M506.5,345.71h8.4a.65.65,0,0,1,.65.65h0a.65.65,0,0,1-.65.65h-8.4a.65.65,0,0,1-.65-.65h0A.65.65,0,0,1,506.5,345.71Z"/><path class="cls-54" d="M506.5,348.21h12.41a.65.65,0,0,1,.65.65h0a.66.66,0,0,1-.65.66H506.5a.66.66,0,0,1-.65-.66h0A.65.65,0,0,1,506.5,348.21Z"/><path class="cls-54" d="M506.5,350.72h14.62a.65.65,0,0,1,.65.65h0a.65.65,0,0,1-.65.65H506.5a.65.65,0,0,1-.65-.65h0A.65.65,0,0,1,506.5,350.72Z"/><path class="cls-6" d="M506.5,353.23H527a.65.65,0,0,1,.65.65h0a.65.65,0,0,1-.65.65H506.5a.65.65,0,0,1-.65-.65h0A.65.65,0,0,1,506.5,353.23Z"/><path class="cls-6" d="M506.5,355.73h16.88a.66.66,0,0,1,.65.65h0a.66.66,0,0,1-.65.66H506.5a.66.66,0,0,1-.65-.66h0A.66.66,0,0,1,506.5,355.73Z"/><path class="cls-6" d="M506.5,358.24h13.06a.65.65,0,0,1,.65.65h0a.65.65,0,0,1-.65.65H506.5a.65.65,0,0,1-.65-.65h0A.65.65,0,0,1,506.5,358.24Z"/><polygon class="cls-51" points="581.82 294.11 581.82 327.78 547.64 327.78 547.64 286.52 574.24 286.52 581.82 294.11"/><polygon class="cls-52" points="573.19 295.16 574.24 286.52 581.82 294.11 573.19 295.16"/><polygon class="cls-53" points="574.24 294.11 574.24 286.52 581.82 294.11 574.24 294.11"/><rect class="cls-5" x="549.69" y="292.06" width="22.12" height="3.4" rx="0.85"/><rect class="cls-5" x="549.69" y="296.9" width="27.19" height="3.4" rx="0.85"/><path class="cls-54" d="M550.54,302.16h19.05a.85.85,0,0,1,.84.85h0a.85.85,0,0,1-.84.84H550.54a.85.85,0,0,1-.85-.84h0A.85.85,0,0,1,550.54,302.16Z"/><path class="cls-54" d="M550.54,305.42h10.94a.85.85,0,0,1,.85.85h0a.85.85,0,0,1-.85.85H550.54a.85.85,0,0,1-.85-.85h0A.85.85,0,0,1,550.54,305.42Z"/><path class="cls-54" d="M550.54,308.69h16.17a.85.85,0,0,1,.85.85h0a.85.85,0,0,1-.85.85H550.54a.85.85,0,0,1-.85-.85h0A.85.85,0,0,1,550.54,308.69Z"/><path class="cls-54" d="M550.54,312h19.05a.85.85,0,0,1,.84.84h0a.85.85,0,0,1-.84.85H550.54a.85.85,0,0,1-.85-.85h0A.85.85,0,0,1,550.54,312Z"/><path class="cls-6" d="M550.54,315.22h26.64a.85.85,0,0,1,.85.85h0a.85.85,0,0,1-.85.85H550.54a.85.85,0,0,1-.85-.85h0A.85.85,0,0,1,550.54,315.22Z"/><path class="cls-6" d="M550.54,318.49h22a.85.85,0,0,1,.85.85h0a.85.85,0,0,1-.85.84h-22a.85.85,0,0,1-.85-.84h0A.85.85,0,0,1,550.54,318.49Z"/><path class="cls-6" d="M550.54,321.75h17a.85.85,0,0,1,.85.85h0a.85.85,0,0,1-.85.85h-17a.85.85,0,0,1-.85-.85h0A.85.85,0,0,1,550.54,321.75Z"/><polygon class="cls-51" points="80.09 353.97 80.09 379.82 106.33 379.82 106.33 348.15 85.92 348.15 80.09 353.97"/><polygon class="cls-52" points="86.72 354.78 85.92 348.15 80.09 353.97 86.72 354.78"/><polygon class="cls-53" points="85.92 353.97 85.92 348.15 80.09 353.97 85.92 353.97"/><rect class="cls-5" x="87.78" y="352.4" width="16.97" height="2.61" rx="0.65"/><rect class="cls-5" x="83.89" y="356.11" width="20.87" height="2.61" rx="0.65"/><path class="cls-54" d="M104.1,360.15H89.49a.65.65,0,0,0-.65.65h0a.65.65,0,0,0,.65.65H104.1a.65.65,0,0,0,.65-.65h0A.65.65,0,0,0,104.1,360.15Z"/><path class="cls-54" d="M104.1,362.66H95.71a.66.66,0,0,0-.66.65h0a.66.66,0,0,0,.66.65h8.39a.65.65,0,0,0,.65-.65h0A.65.65,0,0,0,104.1,362.66Z"/><path class="cls-54" d="M104.1,365.16H91.69a.65.65,0,0,0-.65.65h0a.65.65,0,0,0,.65.65H104.1a.65.65,0,0,0,.65-.65h0A.65.65,0,0,0,104.1,365.16Z"/><path class="cls-54" d="M104.1,367.67H89.49a.65.65,0,0,0-.65.65h0a.65.65,0,0,0,.65.65H104.1a.65.65,0,0,0,.65-.65h0A.65.65,0,0,0,104.1,367.67Z"/><path class="cls-6" d="M104.1,370.18H83.66a.65.65,0,0,0-.65.65h0a.65.65,0,0,0,.65.65H104.1a.65.65,0,0,0,.65-.65h0A.65.65,0,0,0,104.1,370.18Z"/><path class="cls-6" d="M104.1,372.68H87.22a.65.65,0,0,0-.65.65h0a.65.65,0,0,0,.65.65H104.1a.65.65,0,0,0,.65-.65h0A.65.65,0,0,0,104.1,372.68Z"/><path class="cls-6" d="M104.1,375.19H91a.65.65,0,0,0-.65.65h0a.65.65,0,0,0,.65.65H104.1a.65.65,0,0,0,.65-.65h0A.65.65,0,0,0,104.1,375.19Z"/><polygon class="cls-51" points="28.14 300.61 28.14 334.28 62.32 334.28 62.32 293.02 35.73 293.02 28.14 300.61"/><polygon class="cls-52" points="36.77 301.66 35.73 293.02 28.14 300.61 36.77 301.66"/><polygon class="cls-53" points="35.73 300.61 35.73 293.02 28.14 300.61 35.73 300.61"/><rect class="cls-5" x="38.15" y="298.56" width="22.12" height="3.4" rx="0.85"/><rect class="cls-5" x="33.08" y="303.4" width="27.19" height="3.4" rx="0.85"/><path class="cls-54" d="M59.42,308.66h-19a.85.85,0,0,0-.85.85h0a.85.85,0,0,0,.85.85h19a.85.85,0,0,0,.85-.85h0A.85.85,0,0,0,59.42,308.66Z"/><path class="cls-54" d="M59.42,311.93H48.48a.85.85,0,0,0-.85.84h0a.85.85,0,0,0,.85.85H59.42a.85.85,0,0,0,.85-.85h0A.85.85,0,0,0,59.42,311.93Z"/><path class="cls-54" d="M59.42,315.19H43.25a.85.85,0,0,0-.85.85h0a.85.85,0,0,0,.85.85H59.42a.85.85,0,0,0,.85-.85h0A.85.85,0,0,0,59.42,315.19Z"/><path class="cls-54" d="M59.42,318.46h-19a.85.85,0,0,0-.85.85h0a.85.85,0,0,0,.85.84h19a.85.85,0,0,0,.85-.84h0A.85.85,0,0,0,59.42,318.46Z"/><path class="cls-6" d="M59.42,321.72H32.78a.85.85,0,0,0-.85.85h0a.85.85,0,0,0,.85.85H59.42a.85.85,0,0,0,.85-.85h0A.85.85,0,0,0,59.42,321.72Z"/><path class="cls-6" d="M59.42,325h-22a.85.85,0,0,0-.85.85h0a.85.85,0,0,0,.85.85h22a.85.85,0,0,0,.85-.85h0A.85.85,0,0,0,59.42,325Z"/><path class="cls-6" d="M59.42,328.26h-17a.85.85,0,0,0-.85.84h0a.85.85,0,0,0,.85.85h17a.85.85,0,0,0,.85-.85h0A.85.85,0,0,0,59.42,328.26Z"/><path class="cls-5" d="M475,113.57a1.5,1.5,0,0,1-1.51,1.49l-2.95,0a12.19,12.19,0,0,0-11.52-12v-2.66a1.52,1.52,0,0,1,1.51-1.49A14.58,14.58,0,0,1,475,113.57Z"/><path class="cls-55" d="M470.58,115,460.49,115a1.49,1.49,0,0,1-1.49-1.5l.06-10.39a12.19,12.19,0,0,1,11.52,12Z"/><path class="cls-6" d="M154.56,189.18a1.72,1.72,0,0,1,1.36,2l-.63,3.3a13.81,13.81,0,0,0-15.72,10.38l-3-.56a1.7,1.7,0,0,1-1.35-2,16.56,16.56,0,0,1,19.3-13.12Z"/><path class="cls-50" d="M155.29,194.47l-2.15,11.24a1.7,1.7,0,0,1-2,1.35l-11.58-2.21a13.81,13.81,0,0,1,15.72-10.38Z"/></svg>